External Loads File
version=1
nRows=62
nColumns=13
Range=5.000000e-03-10 seconds
endheader
time 	forceRightX 	forceRightY 	forceRightZ 	pointRightX 	pointRightY 	pointRightZ 	forceLeftX 	forceLeftY 	forceLeftZ 	pointLeftX 	pointLeftY 	pointLeftZ 		
0.005000 25.155866 167.368319 -0.000000 0.117078 0.192751 -0.147019 -16.538979 101.153166 -0.000000 0.335676 0.462007 -0.381737
0.010000 25.853936 167.801664 -0.000000 0.117089 0.192755 -0.147011 -15.714469 101.894974 -0.000000 0.335677 0.462010 -0.381730
0.015000 26.480157 168.134239 -0.000000 0.117110 0.192746 -0.147014 -14.923775 102.621556 -0.000000 0.335673 0.462015 -0.381730
0.020000 27.040658 168.318813 -0.000000 0.117036 0.192756 -0.146946 -14.240446 103.235607 -0.000000 0.335648 0.462022 -0.381733
0.025000 27.448927 168.369438 -0.000000 0.117035 0.192711 -0.146943 -13.765984 103.669722 -0.000000 0.335631 0.462033 -0.381755
0.030000 27.795351 168.315800 -0.000000 0.117050 0.192769 -0.146933 -13.465935 103.904059 -0.000000 0.335659 0.462048 -0.381718
0.035000 28.040103 168.220116 -0.000000 0.117064 0.192781 -0.146934 -13.368792 103.936817 -0.000000 0.335657 0.462065 -0.381706
0.040000 28.275637 168.105769 -0.000000 0.117069 0.192798 -0.146946 -13.416337 103.800042 -0.000000 0.335709 0.462086 -0.381710
0.045000 28.482761 167.997701 -0.000000 0.117070 0.192791 -0.146946 -13.594915 103.550736 -0.000000 0.335667 0.462109 -0.381704
0.050000 28.738616 167.889853 -0.000000 0.117072 0.192794 -0.146945 -13.795736 103.279437 -0.000000 0.335665 0.462136 -0.381715
0.055000 29.008119 167.775438 -0.000000 0.117091 0.192798 -0.146937 -13.973435 103.053651 -0.000000 0.335662 0.462165 -0.381707
0.060000 29.268403 167.629238 -0.000000 0.117102 0.192799 -0.146931 -14.088144 102.920940 -0.000000 0.335665 0.462197 -0.381710
0.065000 29.485488 167.429203 -0.000000 0.117118 0.192797 -0.146939 -14.119452 102.922112 -0.000000 0.335663 0.462232 -0.381698
0.070000 29.661737 167.165914 -0.000000 0.117122 0.192808 -0.146936 -14.057499 103.066919 -0.000000 0.335660 0.462270 -0.381706
0.075000 29.789558 166.854043 -0.000000 0.117135 0.192811 -0.146935 -13.942787 103.306418 -0.000000 0.335661 0.462310 -0.381706
0.080000 29.893237 166.518856 -0.000000 0.117144 0.192818 -0.146925 -13.811447 103.576559 -0.000000 0.335665 0.462352 -0.381702
0.085000 29.988574 166.192100 -0.000000 0.117147 0.192820 -0.146928 -13.692019 103.837886 -0.000000 0.335653 0.462397 -0.381705
0.090000 30.187977 165.881874 -0.000000 0.117149 0.192810 -0.146932 -13.531402 104.087399 -0.000000 0.335890 0.462444 -0.381894
0.095000 30.308593 165.636542 -0.000000 0.117157 0.192810 -0.146935 -13.427330 104.325039 -0.000000 0.335875 0.462493 -0.381907
0.100000 30.432743 165.440119 -0.000000 0.117156 0.192811 -0.146931 -13.275040 104.596320 -0.000000 0.335882 0.462545 -0.381918
0.105000 30.521928 165.292839 -0.000000 0.117158 0.192807 -0.146929 -13.049524 104.932492 -0.000000 0.335884 0.462598 -0.381920
0.110000 30.587874 165.193734 -0.000000 0.117156 0.192817 -0.146929 -12.747352 105.334117 -0.000000 0.335885 0.462654 -0.381921
0.115000 30.648339 165.145117 -0.000000 0.117155 0.192825 -0.146936 -12.416990 105.765298 -0.000000 0.335885 0.462711 -0.381802
0.120000 30.727005 165.140165 -0.000000 0.117153 0.192818 -0.146945 -12.122203 106.169086 -0.000000 0.335881 0.462771 -0.381799
0.125000 30.837209 165.162133 -0.000000 0.117154 0.192825 -0.146940 -11.910360 106.490982 -0.000000 0.335880 0.462832 -0.381799
0.130000 30.956578 165.196213 -0.000000 0.117149 0.192827 -0.146962 -11.804244 106.705492 -0.000000 0.335867 0.462894 -0.381804
0.135000 31.085152 165.230561 -0.000000 0.117134 0.192832 -0.146946 -11.777580 106.821270 -0.000000 0.335877 0.462959 -0.381806
0.140000 31.180793 165.275448 -0.000000 0.117136 0.192836 -0.146948 -11.829030 106.852493 -0.000000 0.335857 0.463024 -0.381803
0.145000 31.254606 165.336059 -0.000000 0.117120 0.192826 -0.146950 -11.927209 106.817235 -0.000000 0.335838 0.463092 -0.381805
0.150000 31.270011 165.416922 -0.000000 0.117116 0.192832 -0.146963 -12.069744 106.730738 -0.000000 0.335758 0.463160 -0.381824
0.155000 31.272820 165.499037 -0.000000 0.117105 0.192839 -0.146954 -12.207653 106.607218 -0.000000 0.335768 0.463230 -0.381818
0.160000 31.207759 165.584770 -0.000000 0.117090 0.192822 -0.146963 -12.363056 106.451769 -0.000000 0.335748 0.463301 -0.381820
0.165000 31.102486 165.664331 -0.000000 0.117090 0.192827 -0.146964 -12.500477 106.283265 -0.000000 0.335747 0.463373 -0.381826
0.170000 30.965637 165.728966 -0.000000 0.117082 0.192828 -0.146958 -12.604374 106.117068 -0.000000 0.335753 0.463446 -0.381828
0.175000 30.818232 165.762065 -0.000000 0.117070 0.192841 -0.146966 -12.672856 105.960000 -0.000000 0.335741 0.463520 -0.381823
0.180000 30.711012 165.740002 -0.000000 0.117059 0.192824 -0.146961 -12.697830 105.813241 -0.000000 0.335831 0.463595 -0.381824
0.185000 30.596403 165.668404 -0.000000 0.117042 0.192825 -0.146968 -12.743471 105.651857 -0.000000 0.335824 0.463671 -0.381821
0.190000 30.504232 165.563547 -0.000000 0.117038 0.192834 -0.146967 -12.826337 105.448131 -0.000000 0.335816 0.463747 -0.381814
0.195000 30.437562 165.463043 -0.000000 0.117027 0.192832 -0.146971 -12.947774 105.203656 -0.000000 0.335804 0.463825 -0.381820
0.200000 30.396563 165.395236 -0.000000 0.117011 0.192829 -0.146969 -13.077505 104.950004 -0.000000 0.335809 0.463902 -0.381835
0.205000 30.348469 165.376255 -0.000000 0.117008 0.192824 -0.146977 -13.212175 104.708937 -0.000000 0.335810 0.463980 -0.381827
0.210000 30.295237 165.409646 -0.000000 0.117011 0.192825 -0.146969 -13.339158 104.498706 -0.000000 0.335808 0.464059 -0.381834
0.215000 30.255970 165.502662 -0.000000 0.116996 0.192822 -0.146970 -13.442514 104.341008 -0.000000 0.335792 0.464138 -0.381839
0.220000 30.263734 165.665400 -0.000000 0.117000 0.192805 -0.146971 -13.525001 104.232793 -0.000000 0.335800 0.464217 -0.381839
0.225000 30.362754 165.887521 -0.000000 0.116996 0.192825 -0.146970 -13.597108 104.143308 -0.000000 0.335808 0.464296 -0.381834
0.230000 30.523381 166.132443 -0.000000 0.116987 0.192821 -0.146978 -13.680862 104.049590 -0.000000 0.335804 0.464375 -0.381834
0.235000 30.709551 166.341337 -0.000000 0.116987 0.192823 -0.146978 -13.755243 103.963963 -0.000000 0.335799 0.464455 -0.381836
0.240000 30.868521 166.476245 -0.000000 0.116992 0.192822 -0.146972 -13.795548 103.917791 -0.000000 0.335793 0.464534 -0.381838
0.245000 30.977401 166.531953 -0.000000 0.116984 0.192822 -0.146974 -13.782439 103.936668 -0.000000 0.335788 0.464613 -0.381841
0.250000 31.024266 166.526448 -0.000000 0.116983 0.192825 -0.146971 -13.734647 104.012100 -0.000000 0.335786 0.464692 -0.381844
0.255000 30.972131 166.486114 -0.000000 0.117096 0.192823 -0.147030 -13.711000 104.109002 -0.000000 0.335788 0.464771 -0.381845
0.260000 30.919326 166.405090 -0.000000 0.117082 0.192822 -0.147013 -13.673124 104.212718 -0.000000 0.335794 0.464849 -0.381844
0.265000 30.816220 166.301916 -0.000000 0.117099 0.192828 -0.147036 -13.662197 104.306146 -0.000000 0.335808 0.464926 -0.381840
0.270000 30.712491 166.186579 -0.000000 0.117000 0.192830 -0.146979 -13.664292 104.373916 -0.000000 0.335796 0.465004 -0.381844
0.275000 30.576457 166.095600 -0.000000 0.116992 0.192841 -0.146983 -13.723843 104.393852 -0.000000 0.335809 0.465080 -0.381839
0.280000 30.441251 166.047683 -0.000000 0.117000 0.192836 -0.146980 -13.843702 104.354768 -0.000000 0.335812 0.465156 -0.381841
0.285000 30.346170 166.043254 -0.000000 0.117003 0.192840 -0.146980 -14.016247 104.246797 -0.000000 0.335818 0.465231 -0.381843
0.290000 30.288708 166.071063 -0.000000 0.117001 0.192839 -0.146967 -14.235855 104.069538 -0.000000 0.335828 0.465305 -0.381842
0.295000 30.237070 166.102736 -0.000000 0.117025 0.192849 -0.146965 -14.483392 103.844248 -0.000000 0.335820 0.465378 -0.381848
0.300000 30.201746 166.096632 -0.000000 0.117024 0.192863 -0.146968 -14.706684 103.604971 -0.000000 0.335827 0.465450 -0.381844
0.305000 30.153285 166.044606 -0.000000 0.117034 0.192854 -0.146982 -14.891310 103.381649 -0.000000 0.335827 0.465521 -0.381844
0.310000 30.120855 165.958407 -0.000000 0.117035 0.192848 -0.146974 -14.992464 103.216116 -0.000000 0.335827 0.465591 -0.381844
